<svg height="512" viewBox="0 0 48 48" width="512" xmlns="http://www.w3.org/2000/svg" xmlns:xlink="http://www.w3.org/1999/xlink"><linearGradient id="linear-gradient" gradientUnits="userSpaceOnUse" x1="24" x2="24" y1="1.218" y2="45.692"><stop offset="0" stop-color="#ffedff"/><stop offset="1" stop-color="#ffc3f9"/></linearGradient><linearGradient id="linear-gradient-2" gradientUnits="userSpaceOnUse" x1="24" x2="24" y1="10.192" y2="36.78"><stop offset="0" stop-color="#b444ff"/><stop offset="1" stop-color="#f582ff"/></linearGradient><g id="Layer_2" data-name="Layer 2"><path d="m46.4062 10.7173a9.683 9.683 0 0 0 -9.124-9.124 235.4011 235.4011 0 0 0 -26.5639 0 9.6839 9.6839 0 0 0 -9.1245 9.124 235.4117 235.4117 0 0 0 0 26.5645 9.684 9.684 0 0 0 9.1245 9.124 234.815 234.815 0 0 0 26.5639 0 9.6831 9.6831 0 0 0 9.124-9.124 235.4117 235.4117 0 0 0 0-26.5645z" fill="url(#linear-gradient)"/></g><g id="Layer_3" fill="url(#linear-gradient-2)" data-name="Layer 3"><path d="m27.25 26.5a1.7522 1.7522 0 0 0 -1.75-1.75h-4.75v3.5h4.75a1.7522 1.7522 0 0 0 1.75-1.75z"/><path d="m27.25 21.5a1.7522 1.7522 0 0 0 -1.75-1.75h-4.75v3.5h4.75a1.7522 1.7522 0 0 0 1.75-1.75z"/><path d="m24 37.75a13.75 13.75 0 1 0 -13.75-13.75 13.7659 13.7659 0 0 0 13.75 13.75zm-4.75-13.75v-5a.75.75 0 0 1 .75-.75h1.25v-1.25a.75.75 0 0 1 1.5 0v1.25h1.5v-1.25a.75.75 0 0 1 1.5 0v1.2753a3.2238 3.2238 0 0 1 1.801 5.7247 3.2238 3.2238 0 0 1 -1.801 5.7247v1.2753a.75.75 0 0 1 -1.5 0v-1.25h-1.5v1.25a.75.75 0 0 1 -1.5 0v-1.25h-1.25a.75.75 0 0 1 -.75-.75z"/></g></svg>