<svg width="40" height="40" viewBox="0 0 40 40" fill="none" xmlns="http://www.w3.org/2000/svg">
<g clip-path="url(#clip0_215_4)">
<path d="M21.6667 1.66664C21.6667 1.22462 21.8423 0.800692 22.1549 0.488131C22.4674 0.175571 22.8914 -2.39339e-05 23.3334 -2.39339e-05C27.7522 0.00482873 31.9886 1.76233 35.1131 4.88689C38.2377 8.01144 39.9952 12.2479 40.0001 16.6666C40.0001 17.1087 39.8245 17.5326 39.5119 17.8452C39.1993 18.1577 38.7754 18.3333 38.3334 18.3333C37.8914 18.3333 37.4674 18.1577 37.1549 17.8452C36.8423 17.5326 36.6667 17.1087 36.6667 16.6666C36.6628 13.1316 35.2567 9.74256 32.7571 7.24294C30.2575 4.74331 26.8684 3.33728 23.3334 3.33331C22.8914 3.33331 22.4674 3.15771 22.1549 2.84515C21.8423 2.53259 21.6667 2.10867 21.6667 1.66664ZM23.3334 9.99998C25.1015 9.99998 26.7972 10.7024 28.0474 11.9526C29.2977 13.2028 30.0001 14.8985 30.0001 16.6666C30.0001 17.1087 30.1757 17.5326 30.4882 17.8452C30.8008 18.1577 31.2247 18.3333 31.6667 18.3333C32.1088 18.3333 32.5327 18.1577 32.8452 17.8452C33.1578 17.5326 33.3334 17.1087 33.3334 16.6666C33.3307 14.0153 32.2763 11.4733 30.4015 9.5985C28.5267 7.72371 25.9847 6.66929 23.3334 6.66664C22.8914 6.66664 22.4674 6.84224 22.1549 7.1548C21.8423 7.46736 21.6667 7.89128 21.6667 8.33331C21.6667 8.77534 21.8423 9.19926 22.1549 9.51182C22.4674 9.82438 22.8914 9.99998 23.3334 9.99998ZM38.4884 27.8983C39.4542 28.8668 39.9966 30.1788 39.9966 31.5466C39.9966 32.9145 39.4542 34.2265 38.4884 35.195L36.9717 36.9433C23.3217 50.0116 -9.89494 16.8033 2.97172 3.10998L4.88839 1.44331C5.85801 0.504438 7.15828 -0.0149421 8.5079 -0.00246586C9.85752 0.0100104 11.148 0.55334 12.1001 1.50998C12.1517 1.56164 15.2401 5.57331 15.2401 5.57331C16.1564 6.53602 16.6666 7.81486 16.6644 9.14398C16.6622 10.4731 16.1479 11.7503 15.2284 12.71L13.2984 15.1366C14.3665 17.7318 15.9368 20.0904 17.9192 22.0768C19.9016 24.0632 22.257 25.6383 24.8501 26.7116L27.2917 24.77C28.2516 23.8512 29.5285 23.3375 30.8572 23.3356C32.1859 23.3337 33.4643 23.8439 34.4267 24.76C34.4267 24.76 38.4367 27.8466 38.4884 27.8983ZM36.1951 30.3216C36.1951 30.3216 32.2067 27.2533 32.1551 27.2016C31.8117 26.8612 31.3478 26.6702 30.8642 26.6702C30.3807 26.6702 29.9167 26.8612 29.5734 27.2016C29.5284 27.2483 26.1667 29.9266 26.1667 29.9266C25.9402 30.107 25.6706 30.2252 25.3845 30.2696C25.0984 30.314 24.8056 30.2831 24.5351 30.18C21.1758 28.9293 18.1246 26.9712 15.5881 24.4384C13.0516 21.9057 11.0891 18.8574 9.83339 15.5C9.72205 15.2257 9.68576 14.9268 9.72823 14.6339C9.7707 14.341 9.89041 14.0646 10.0751 13.8333C10.0751 13.8333 12.7534 10.47 12.7984 10.4266C13.1388 10.0833 13.3299 9.61934 13.3299 9.13581C13.3299 8.65228 13.1388 8.18833 12.7984 7.84498C12.7467 7.79498 9.67839 3.80331 9.67839 3.80331C9.32989 3.49082 8.87506 3.32347 8.40714 3.33555C7.93921 3.34764 7.49363 3.53825 7.16172 3.86831L5.24506 5.53498C-4.15828 16.8416 24.6267 44.03 34.5351 34.6666L36.0534 32.9166C36.4092 32.5871 36.6229 32.1321 36.6493 31.6478C36.6758 31.1635 36.5129 30.688 36.1951 30.3216Z" fill="white"/>
</g>
<defs>
<clipPath id="clip0_215_4">
<rect width="40" height="40" fill="white"/>
</clipPath>
</defs>
</svg>
