<svg width="40" height="40" viewBox="0 0 40 40" fill="none" xmlns="http://www.w3.org/2000/svg">
<path d="M31.6667 0H8.33333C6.12401 0.00288701 4.00593 0.961604 2.4437 2.66585C0.88147 4.37011 0.00264643 6.68074 0 9.09091L0 30.9091C0.00264643 33.3193 0.88147 35.6299 2.4437 37.3341C4.00593 39.0384 6.12401 39.9971 8.33333 40H31.6667C33.876 39.9971 35.9941 39.0384 37.5563 37.3341C39.1185 35.6299 39.9974 33.3193 40 30.9091V9.09091C39.9974 6.68074 39.1185 4.37011 37.5563 2.66585C35.9941 0.961604 33.876 0.00288701 31.6667 0ZM8.33333 3.63636H31.6667C32.6646 3.63851 33.6392 3.96639 34.4649 4.57783C35.2906 5.18926 35.9298 6.05627 36.3 7.06727L23.5367 20.9927C22.5974 22.0133 21.3257 22.5863 20 22.5863C18.6743 22.5863 17.4026 22.0133 16.4633 20.9927L3.7 7.06727C4.07025 6.05627 4.70936 5.18926 5.53508 4.57783C6.3608 3.96639 7.33536 3.63851 8.33333 3.63636ZM31.6667 36.3636H8.33333C7.00725 36.3636 5.73548 35.789 4.7978 34.766C3.86012 33.7431 3.33333 32.3557 3.33333 30.9091V11.8182L14.1067 23.5636C15.671 25.2659 17.7904 26.2219 20 26.2219C22.2096 26.2219 24.329 25.2659 25.8933 23.5636L36.6667 11.8182V30.9091C36.6667 32.3557 36.1399 33.7431 35.2022 34.766C34.2645 35.789 32.9927 36.3636 31.6667 36.3636Z" fill="white"/>
</svg>
